<svg version="1.1" id="Layer_1" xmlns="http://www.w3.org/2000/svg" xmlns:xlink="http://www.w3.org/1999/xlink" x="0" y="0" viewBox="0 0 411.8 54.8" xml:space="preserve" enable-background="new 0 0 411.8 54.8"><style type="text/css">.st0{fill:#333}.st1{fill:#ef9812}.st2{fill:#34495e}.st3{fill:#bc392b}</style><g><path class="st0" d="M104.3,13.4c0.5,0.4,0.7,1,0.7,1.7v29.1c0,0.7-0.3,1.2-0.7,1.7c-0.5,0.5-1,0.7-1.7,0.7c-0.6,0-1.2-0.2-1.7-0.7 c-0.5-0.5-0.7-1-0.7-1.7V31.6H83v12.5c0,0.7-0.2,1.2-0.7,1.7c-0.5,0.5-1,0.7-1.7,0.7c-0.7,0-1.3-0.2-1.7-0.7s-0.7-1-0.7-1.7V15 c0-0.6,0.2-1.2,0.7-1.6c0.5-0.5,1-0.7,1.7-0.7c0.6,0,1.2,0.2,1.7,0.7c0.5,0.5,0.7,1,0.7,1.6v12.2h17.1V15c0-0.6,0.2-1.2,0.7-1.6 c0.5-0.5,1-0.7,1.7-0.7C103.3,12.7,103.9,12.9,104.3,13.4z"/><path class="st0" d="M139.1,44.4c0,0.6-0.2,1.2-0.7,1.6c-0.4,0.4-0.9,0.6-1.5,0.6c-0.5,0-0.9-0.1-1.2-0.4c-0.4-0.3-0.7-0.7-0.9-1.1 l-3-7.1h-14.9l-2.9,7.1c-0.2,0.5-0.4,0.9-0.8,1.1c-0.4,0.3-0.8,0.4-1.2,0.4c-0.7,0-1.2-0.2-1.5-0.5c-0.4-0.4-0.5-0.8-0.5-1.4 c0-0.1,0-0.4,0.1-0.8l12.3-29.8c0.2-0.5,0.5-0.9,0.9-1.2c0.4-0.3,0.9-0.4,1.4-0.3c0.5,0,0.9,0.1,1.3,0.4c0.4,0.3,0.7,0.6,0.8,1.1 l12.3,29.5C139,43.8,139.1,44.1,139.1,44.4z M118.7,33.6H130l-5.7-13.5L118.7,33.6z"/><path class="st0" d="M170.5,43.5c0.2,0.3,0.3,0.7,0.3,1c0,0.7-0.2,1.2-0.7,1.5c-0.4,0.3-1,0.5-1.6,0.5c-0.6,0-1.1-0.1-1.5-0.4 c-1-0.5-1.8-1.4-2.4-2.7c-0.6-1.2-0.9-3-0.9-5.4c0-1.6-0.5-2.8-1.4-3.6c-1-0.8-2.2-1.2-3.8-1.2h-9.8v10.9c0,0.7-0.2,1.2-0.6,1.7 c-0.4,0.4-0.9,0.7-1.5,0.7c-0.7,0-1.4-0.2-1.9-0.7c-0.5-0.5-0.8-1-0.8-1.6V15c0-0.6,0.2-1.2,0.7-1.6c0.5-0.5,1-0.7,1.6-0.7h13.6 c1.7,0,3.3,0.4,4.8,1.3c1.4,0.9,2.6,2,3.5,3.5c0.9,1.5,1.3,3.2,1.3,5c0,1.8-0.5,3.5-1.4,5c-1,1.6-2.2,2.7-3.7,3.5 c1.2,0.6,2.1,1.5,2.8,2.6s1.1,2.4,1.1,3.8c0.1,1.8,0.3,3.1,0.4,3.7c0.2,0.7,0.5,1.1,1.1,1.4C170,42.9,170.3,43.2,170.5,43.5z M162.1,28.4c0.7-0.6,1.3-1.4,1.8-2.3c0.5-1,0.7-2.1,0.7-3.3c0-1.5-0.5-2.9-1.4-3.9c-1-1.1-2.1-1.6-3.5-1.6h-10.9v12.2h11 C160.6,29.3,161.3,28.9,162.1,28.4z"/><path class="st0" d="M207.8,13.4c0.5,0.4,0.7,1,0.7,1.6v29.2c0,0.6-0.2,1.2-0.7,1.6s-1,0.7-1.7,0.7c-0.7,0-1.3-0.2-1.7-0.7 c-0.5-0.4-0.7-1-0.7-1.7V21.8L194.3,36c-0.2,0.3-0.5,0.5-0.8,0.7c-0.3,0.2-0.7,0.3-1,0.2c-0.3,0-0.7,0-1-0.2 c-0.3-0.2-0.6-0.4-0.8-0.7l-9.4-14.6v22.8c0,0.7-0.2,1.2-0.6,1.7c-0.4,0.4-0.9,0.7-1.6,0.7c-0.6,0-1.2-0.2-1.6-0.7 c-0.4-0.4-0.6-1-0.6-1.7V15c0-0.6,0.2-1.2,0.7-1.6c0.5-0.5,1-0.7,1.7-0.7c0.4,0,0.8,0.1,1.1,0.3c0.4,0.2,0.7,0.5,0.9,0.8l11.4,17.3 l11.6-17.3c0.5-0.7,1.2-1.1,1.9-1.1C206.8,12.7,207.4,12.9,207.8,13.4z"/><path class="st0" d="M245.1,38.5c-1.4,2.6-3.3,4.7-5.8,6.3c-2.5,1.5-5.3,2.3-8.4,2.3c-3.1,0-5.9-0.8-8.4-2.3 c-2.5-1.5-4.4-3.6-5.8-6.3c-1.4-2.6-2.1-5.6-2.1-8.8c0-3.3,0.7-6.2,2.1-8.8c1.4-2.6,3.3-4.7,5.8-6.3c2.5-1.5,5.3-2.3,8.4-2.3 c3.1,0,5.9,0.8,8.4,2.3c2.5,1.5,4.4,3.6,5.8,6.3c1.4,2.6,2.1,5.6,2.1,8.8C247.2,32.9,246.5,35.8,245.1,38.5z M240.8,23.1 c-1-1.9-2.3-3.5-4-4.6c-1.7-1.1-3.7-1.7-5.9-1.7c-2.2,0-4.1,0.5-5.9,1.6c-1.7,1.1-3.1,2.6-4,4.6c-1,1.9-1.4,4.1-1.4,6.6 c0,2.4,0.5,4.6,1.4,6.5c1,1.9,2.3,3.5,4,4.6c1.7,1.1,3.7,1.7,5.9,1.7c2.2,0,4.1-0.6,5.9-1.7c1.7-1.1,3.1-2.6,4-4.6 c1-1.9,1.4-4.1,1.4-6.5C242.3,27.2,241.8,25,240.8,23.1z"/><path class="st0" d="M280.1,13.3c0.4,0.4,0.6,0.9,0.6,1.5v29.3c0,0.7-0.2,1.2-0.7,1.7c-0.4,0.5-1,0.7-1.7,0.7c-0.4,0-0.7-0.1-1-0.2 c-0.3-0.1-0.6-0.3-0.8-0.5l-19-24.7v23.3c0,0.6-0.2,1.1-0.6,1.5c-0.4,0.4-0.9,0.6-1.5,0.6c-0.6,0-1.1-0.2-1.5-0.6 c-0.4-0.4-0.6-0.9-0.6-1.5V15c0-0.7,0.2-1.2,0.7-1.7c0.4-0.4,1-0.7,1.6-0.7c0.4,0,0.8,0.1,1.1,0.2c0.4,0.1,0.6,0.3,0.8,0.6 l18.9,24.8V14.8c0-0.6,0.2-1.1,0.6-1.5c0.4-0.4,0.9-0.6,1.5-0.6C279.2,12.7,279.7,12.9,280.1,13.3z"/><path class="st0" d="M311.5,16.3L301.1,31v13.2c0,0.6-0.2,1.2-0.7,1.6c-0.4,0.5-1,0.7-1.6,0.7c-0.6,0-1.2-0.2-1.6-0.7 c-0.5-0.5-0.7-1-0.7-1.6V30.6l-10.3-14c-0.5-0.6-0.7-1.2-0.7-1.7c0-0.6,0.3-1.2,0.8-1.6c0.5-0.5,1.1-0.7,1.7-0.7 c0.7,0,1.4,0.4,1.9,1.1l9.1,12.6l8.7-12.5c0.5-0.7,1.2-1.1,1.9-1.1c0.6,0,1.1,0.2,1.6,0.7s0.7,1,0.7,1.6 C311.9,15.4,311.8,15.9,311.5,16.3z"/><path class="st0" d="M350.1,15.3c1.7,1.7,2.5,3.9,2.5,6.7c0,1.8-0.4,3.4-1.1,4.9c-0.8,1.5-1.8,2.6-3.2,3.4c-1.4,0.8-3,1.2-4.8,1.2 H333v14.1c0,0.3-0.1,0.5-0.3,0.7c-0.2,0.2-0.4,0.3-0.7,0.3c-0.3,0-0.5-0.1-0.7-0.3c-0.2-0.2-0.3-0.4-0.3-0.7V13.7 c0-0.3,0.1-0.5,0.3-0.7c0.2-0.2,0.4-0.3,0.7-0.3h11.6C346.2,12.7,348.4,13.6,350.1,15.3z M348.7,27.4c1.3-1.4,1.9-3.3,1.9-5.5 s-0.6-4-1.9-5.3c-1.3-1.3-3-2-5.2-2H333v14.9h10.5C345.6,29.6,347.4,28.9,348.7,27.4z"/><path class="st0" d="M362,45.8c-1.8-0.8-3.5-2.1-5.3-3.8c-0.2-0.2-0.3-0.4-0.3-0.7c0-0.3,0.1-0.5,0.3-0.7c0.2-0.2,0.5-0.4,0.7-0.4 c0.3,0,0.6,0.1,0.8,0.4c1.3,1.5,2.7,2.6,4.5,3.4c1.7,0.8,3.5,1.2,5.4,1.2c2.5,0,4.5-0.6,6.1-1.8c1.6-1.2,2.4-2.8,2.4-4.7 c0-1.5-0.5-2.8-1.3-3.8c-0.8-1-1.8-1.8-3-2.4c-1.2-0.6-2.8-1.3-4.8-2c-2.2-0.8-4-1.6-5.2-2.2c-1.2-0.6-2.3-1.6-3.2-2.8 c-0.9-1.2-1.3-2.8-1.3-4.7c0-1.6,0.4-3,1.3-4.3c0.9-1.3,2.1-2.3,3.7-3c1.6-0.7,3.5-1.1,5.6-1.1c1.9,0,3.7,0.3,5.4,1 c1.7,0.7,3.1,1.7,4.1,2.9c0.3,0.5,0.5,0.8,0.5,1c0,0.3-0.1,0.5-0.4,0.7c-0.2,0.2-0.5,0.3-0.8,0.3c-0.3,0-0.5-0.1-0.6-0.3 c-0.9-1.2-2.1-2.1-3.5-2.8c-1.4-0.7-3-1-4.7-1c-2.4,0-4.5,0.6-6.1,1.7c-1.6,1.2-2.4,2.7-2.4,4.7c0,1.4,0.4,2.6,1.2,3.5 c0.8,1,1.8,1.7,3,2.3c1.2,0.6,2.7,1.2,4.4,1.9c2.3,0.8,4,1.5,5.4,2.2c1.3,0.7,2.4,1.7,3.4,2.9c0.9,1.3,1.4,3,1.4,5.1 c0,1.5-0.4,2.9-1.3,4.2c-0.9,1.3-2.1,2.3-3.7,3.1c-1.6,0.8-3.5,1.1-5.6,1.1C365.9,47,363.8,46.6,362,45.8z"/><path class="st0" d="M411,45.6c0,0.3-0.1,0.5-0.3,0.7c-0.2,0.2-0.4,0.2-0.7,0.2c-0.2,0-0.4-0.1-0.6-0.2c-0.2-0.1-0.3-0.3-0.4-0.5 l-4.1-9.9l0,0.1h-16.2l-3.9,9.9c-0.2,0.4-0.5,0.6-0.9,0.6c-0.3,0-0.5-0.1-0.7-0.2c-0.2-0.2-0.3-0.4-0.3-0.6c0-0.1,0-0.3,0-0.5 l13-32c0.1-0.3,0.2-0.4,0.4-0.5c0.1-0.1,0.3-0.1,0.6-0.1c0.5,0,0.8,0.2,1,0.6l13,32C411,45.3,411,45.4,411,45.6z M389.6,34.1h14.6 l-7.4-18.2L389.6,34.1z"/></g><g><path class="st1" d="M53.2,36.8c0,0,1.1-7.5-2.9-12.7c-2.9-3.8-9.1-6.4-17-3.3c-3.1,1.2-6.6,1.6-9.7-0.1c-5.3-2.7-7.4-9.2-4.6-14.5 c0,0,5.1-10.5,20.1-3.8C39.1,2.6,60.4,11.3,53.2,36.8z"/><path class="st2" d="M7,45c0,0,6.1,4.5,12.5,3.5c4.7-0.8,10-5,11-13.3c0.4-3.3,1.7-6.5,4.7-8.5c4.9-3.4,11.6-2.1,14.9,2.8 c0,0,6.8,9.5-6.3,19.5C43.8,48.9,26,63.5,7,45z"/><path class="st3" d="M23.3,0.4c0,0-7.1,2.8-9.6,8.8c-1.8,4.4-1,11.1,5.5,16.4c2.6,2.1,4.6,4.9,4.8,8.5c0.3,5.9-4.3,10.9-10.3,11.2 c0,0-11.7,0.8-13.2-15.6C0.5,29.6-2.5,6.7,23.3,0.4z"/></g></svg>