<svg version="1.1" id="Layer_1" xmlns="http://www.w3.org/2000/svg" xmlns:xlink="http://www.w3.org/1999/xlink" x="0" y="0" viewBox="0 0 55.7 54.8" xml:space="preserve" enable-background="new 0 0 55.7 54.8"><style type="text/css">.st0{fill:#fff}</style><g><path class="st0" d="M53.2,36.8c0,0,1.1-7.5-2.9-12.7c-2.9-3.8-9.1-6.4-17-3.3c-3.1,1.2-6.6,1.6-9.7-0.1C18.3,18,16.2,11.5,19,6.2 c0,0,5.1-10.5,20.1-3.8C39.1,2.6,60.4,11.3,53.2,36.8z"/><path class="st0" d="M7,45c0,0,6.1,4.5,12.5,3.5c4.7-0.8,10-5,11-13.3c0.4-3.3,1.7-6.5,4.7-8.5c4.9-3.4,11.6-2.1,14.9,2.8 c0,0,6.8,9.5-6.3,19.5C43.8,48.9,26,63.5,7,45z"/><path class="st0" d="M23.3,0.4c0,0-7.1,2.8-9.6,8.8c-1.8,4.4-1,11.1,5.5,16.4c2.6,2.1,4.6,4.9,4.8,8.5C24.3,40,19.7,45,13.7,45.3 c0,0-11.7,0.8-13.2-15.6C0.5,29.6-2.5,6.7,23.3,0.4z"/></g></svg>